<mxfile host="app.diagrams.net" modified="2022-05-14T05:48:23.511Z" agent="5.0 (Windows NT 10.0; Win64; x64) AppleWebKit/537.36 (KHTML, like Gecko) Chrome/101.0.4951.54 Safari/537.36" etag="oFVr7q8QPFNee6qtdZA9" version="17.4.0" type="github">
  <diagram id="C5RBs43oDa-KdzZeNtuy" name="Page-1">
    <mxGraphModel dx="1038" dy="547" grid="1" gridSize="10" guides="1" tooltips="1" connect="1" arrows="1" fold="1" page="1" pageScale="1" pageWidth="827" pageHeight="1169" math="0" shadow="0">
      <root>
        <mxCell id="WIyWlLk6GJQsqaUBKTNV-0" />
        <mxCell id="WIyWlLk6GJQsqaUBKTNV-1" parent="WIyWlLk6GJQsqaUBKTNV-0" />
        <mxCell id="WIyWlLk6GJQsqaUBKTNV-2" value="" style="rounded=0;html=1;jettySize=auto;orthogonalLoop=1;fontSize=11;endArrow=block;endFill=0;endSize=8;strokeWidth=1;shadow=0;labelBackgroundColor=none;edgeStyle=orthogonalEdgeStyle;" parent="WIyWlLk6GJQsqaUBKTNV-1" source="WIyWlLk6GJQsqaUBKTNV-3" edge="1">
          <mxGeometry relative="1" as="geometry">
            <mxPoint x="220" y="170" as="targetPoint" />
          </mxGeometry>
        </mxCell>
        <mxCell id="WIyWlLk6GJQsqaUBKTNV-3" value="start" style="rounded=1;whiteSpace=wrap;html=1;fontSize=12;glass=0;strokeWidth=1;shadow=0;" parent="WIyWlLk6GJQsqaUBKTNV-1" vertex="1">
          <mxGeometry x="160" y="80" width="120" height="40" as="geometry" />
        </mxCell>
        <mxCell id="wfViZore6hCq_u2j_SK0-4" value="User Switch" style="rounded=1;whiteSpace=wrap;html=1;" vertex="1" parent="WIyWlLk6GJQsqaUBKTNV-1">
          <mxGeometry x="166" y="171" width="120" height="60" as="geometry" />
        </mxCell>
        <mxCell id="wfViZore6hCq_u2j_SK0-5" value="no of times the button is pressed" style="rhombus;whiteSpace=wrap;html=1;" vertex="1" parent="WIyWlLk6GJQsqaUBKTNV-1">
          <mxGeometry x="119" y="289" width="220" height="80" as="geometry" />
        </mxCell>
        <mxCell id="wfViZore6hCq_u2j_SK0-8" value="" style="shape=flexArrow;endArrow=classic;html=1;rounded=0;" edge="1" parent="WIyWlLk6GJQsqaUBKTNV-1">
          <mxGeometry width="50" height="50" relative="1" as="geometry">
            <mxPoint x="228" y="229" as="sourcePoint" />
            <mxPoint x="228" y="289" as="targetPoint" />
          </mxGeometry>
        </mxCell>
        <mxCell id="wfViZore6hCq_u2j_SK0-9" value="wiper will be ON" style="rounded=1;whiteSpace=wrap;html=1;" vertex="1" parent="WIyWlLk6GJQsqaUBKTNV-1">
          <mxGeometry x="139" y="449" width="90" height="30" as="geometry" />
        </mxCell>
        <mxCell id="wfViZore6hCq_u2j_SK0-10" value="Wiper will be OFF" style="rounded=1;whiteSpace=wrap;html=1;" vertex="1" parent="WIyWlLk6GJQsqaUBKTNV-1">
          <mxGeometry x="240" y="449" width="90" height="30" as="geometry" />
        </mxCell>
        <mxCell id="wfViZore6hCq_u2j_SK0-13" value="Car will be at off position" style="rounded=1;whiteSpace=wrap;html=1;" vertex="1" parent="WIyWlLk6GJQsqaUBKTNV-1">
          <mxGeometry x="390" y="449" width="100" height="30" as="geometry" />
        </mxCell>
        <mxCell id="wfViZore6hCq_u2j_SK0-14" value="car will be at on position" style="rounded=1;whiteSpace=wrap;html=1;" vertex="1" parent="WIyWlLk6GJQsqaUBKTNV-1">
          <mxGeometry x="9" y="449" width="110" height="30" as="geometry" />
        </mxCell>
        <mxCell id="wfViZore6hCq_u2j_SK0-21" value="" style="shape=flexArrow;endArrow=classic;html=1;rounded=0;exitX=0;exitY=0.5;exitDx=0;exitDy=0;entryX=0.62;entryY=-0.147;entryDx=0;entryDy=0;entryPerimeter=0;" edge="1" parent="WIyWlLk6GJQsqaUBKTNV-1" source="wfViZore6hCq_u2j_SK0-5" target="wfViZore6hCq_u2j_SK0-14">
          <mxGeometry width="50" height="50" relative="1" as="geometry">
            <mxPoint x="69" y="349" as="sourcePoint" />
            <mxPoint x="119" y="309" as="targetPoint" />
            <Array as="points">
              <mxPoint x="79" y="339" />
            </Array>
          </mxGeometry>
        </mxCell>
        <mxCell id="wfViZore6hCq_u2j_SK0-22" value="" style="shape=flexArrow;endArrow=classic;html=1;rounded=0;exitX=0.286;exitY=0.835;exitDx=0;exitDy=0;exitPerimeter=0;entryX=0.5;entryY=0;entryDx=0;entryDy=0;" edge="1" parent="WIyWlLk6GJQsqaUBKTNV-1" source="wfViZore6hCq_u2j_SK0-5" target="wfViZore6hCq_u2j_SK0-9">
          <mxGeometry width="50" height="50" relative="1" as="geometry">
            <mxPoint x="150" y="430" as="sourcePoint" />
            <mxPoint x="200" y="380" as="targetPoint" />
          </mxGeometry>
        </mxCell>
        <mxCell id="wfViZore6hCq_u2j_SK0-23" value="" style="shape=flexArrow;endArrow=classic;html=1;rounded=0;exitX=0.705;exitY=0.825;exitDx=0;exitDy=0;exitPerimeter=0;entryX=0.653;entryY=0.067;entryDx=0;entryDy=0;entryPerimeter=0;" edge="1" parent="WIyWlLk6GJQsqaUBKTNV-1" source="wfViZore6hCq_u2j_SK0-5" target="wfViZore6hCq_u2j_SK0-10">
          <mxGeometry width="50" height="50" relative="1" as="geometry">
            <mxPoint x="270" y="440" as="sourcePoint" />
            <mxPoint x="320" y="400" as="targetPoint" />
            <Array as="points">
              <mxPoint x="300" y="410" />
            </Array>
          </mxGeometry>
        </mxCell>
        <mxCell id="wfViZore6hCq_u2j_SK0-24" value="" style="shape=flexArrow;endArrow=classic;html=1;rounded=0;exitX=1;exitY=0.5;exitDx=0;exitDy=0;" edge="1" parent="WIyWlLk6GJQsqaUBKTNV-1" source="wfViZore6hCq_u2j_SK0-5">
          <mxGeometry width="50" height="50" relative="1" as="geometry">
            <mxPoint x="390" y="440" as="sourcePoint" />
            <mxPoint x="430" y="440" as="targetPoint" />
          </mxGeometry>
        </mxCell>
      </root>
    </mxGraphModel>
  </diagram>
</mxfile>
